HIERARCHY
ROOT Hips
{
	OFFSET 54.806099 -7.517716 96.100800
	CHANNELS 6 Xposition Yposition Zposition Xrotation Yrotation Zrotation
	JOINT spine
	{
		OFFSET 0.000000 -0.467660 8.132492
		CHANNELS 3 Xrotation Yrotation Zrotation
		JOINT spine1
		{
			OFFSET 0.000000 -0.000001 10.349800
			CHANNELS 3 Xrotation Yrotation Zrotation
			JOINT spine2
			{
				OFFSET 0.000000 -0.000002 9.916992
				CHANNELS 3 Xrotation Yrotation Zrotation
				JOINT Neck
				{
					OFFSET 0.000000 -1.213904 25.461006
					CHANNELS 3 Xrotation Yrotation Zrotation
					JOINT Head
					{
						OFFSET 0.000000 -0.000001 7.692444
						CHANNELS 3 Xrotation Yrotation Zrotation
						End Site
						{
							OFFSET 0.000000 6.140627 18.619995
						}
					}
				}
				JOINT RightShoulder
				{
					OFFSET -4.175751 0.581443 10.709602
					CHANNELS 3 Xrotation Yrotation Zrotation
					JOINT RightArm
					{
						OFFSET 0.000000 -0.000002 14.046600
						CHANNELS 3 Xrotation Yrotation Zrotation
						JOINT RightArmRoll
						{
							OFFSET 0.000000 -0.000001 7.090973
							CHANNELS 3 Xrotation Yrotation Zrotation
							JOINT RightForeArm
							{
								OFFSET 0.000000 -0.000003 20.653503
								CHANNELS 3 Xrotation Yrotation Zrotation
								JOINT RightForeArmRoll
								{
									OFFSET 0.000000 -0.000001 7.957184
									CHANNELS 3 Xrotation Yrotation Zrotation
									JOINT RightHand
									{
										OFFSET 0.000000 -0.000003 15.968292
										CHANNELS 3 Xrotation Yrotation Zrotation
										End Site
										{
											OFFSET 0.000000 0.000000 0.100006
										}
									}
								}
							}
						}
					}
				}
				JOINT LeftShoulder
				{
					OFFSET 4.175751 0.581443 10.709602
					CHANNELS 3 Xrotation Yrotation Zrotation
					JOINT LeftArm
					{
						OFFSET 0.000000 -0.000002 14.046600
						CHANNELS 3 Xrotation Yrotation Zrotation
						JOINT LeftArmRoll
						{
							OFFSET 0.000000 -0.000001 7.090973
							CHANNELS 3 Xrotation Yrotation Zrotation
							JOINT LeftForeArm
							{
								OFFSET 0.000000 -0.000003 20.653503
								CHANNELS 3 Xrotation Yrotation Zrotation
								JOINT LeftForeArmRoll
								{
									OFFSET 0.000000 -0.000001 7.957184
									CHANNELS 3 Xrotation Yrotation Zrotation
									JOINT LeftHand
									{
										OFFSET 0.000000 -0.000003 15.968292
										CHANNELS 3 Xrotation Yrotation Zrotation
										End Site
										{
											OFFSET 0.000000 0.000000 0.100006
										}
									}
								}
							}
						}
					}
				}
			}
		}
	}
	JOINT RightUpLeg
	{
		OFFSET -7.208340 1.108840 -1.321823
		CHANNELS 3 Xrotation Yrotation Zrotation
		JOINT RightUpLegRoll
		{
			OFFSET 0.000000 -0.000003 18.723801
			CHANNELS 3 Xrotation Yrotation Zrotation
			JOINT RightLeg
			{
				OFFSET 0.000000 0.000004 -23.186600
				CHANNELS 3 Xrotation Yrotation Zrotation
				JOINT RightLegRoll
				{
					OFFSET 0.000000 -0.000004 23.262398
					CHANNELS 3 Xrotation Yrotation Zrotation
					JOINT RightFoot
					{
						OFFSET 0.000000 -0.000003 19.362099
						CHANNELS 3 Xrotation Yrotation Zrotation
						JOINT RightToeBase
						{
							OFFSET 0.000000 -0.000003 16.185699
							CHANNELS 3 Xrotation Yrotation Zrotation
							End Site
							{
								OFFSET 0.006859 0.903521 7.838623
							}
						}
					}
				}
			}
		}
	}
	JOINT LeftUpLeg
	{
		OFFSET 7.208340 1.108840 -1.321823
		CHANNELS 3 Xrotation Yrotation Zrotation
		JOINT LeftUpLegRoll
		{
			OFFSET 0.000000 -0.000003 18.723900
			CHANNELS 3 Xrotation Yrotation Zrotation
			JOINT LeftLeg
			{
				OFFSET 0.000000 -0.000004 23.186501
				CHANNELS 3 Xrotation Yrotation Zrotation
				JOINT LeftLegRoll
				{
					OFFSET 0.000000 -0.000004 23.477493
					CHANNELS 3 Xrotation Yrotation Zrotation
					JOINT LeftFoot
					{
						OFFSET 0.000000 -0.000003 19.147003
						CHANNELS 3 Xrotation Yrotation Zrotation
						JOINT LeftToeBase
						{
							OFFSET 0.000000 -0.000003 16.185699
							CHANNELS 3 Xrotation Yrotation Zrotation
							End Site
							{
								OFFSET -0.030746 0.903520 7.838623
							}
						}
					}
				}
			}
		}
	}
}
MOTION
Frames: 9
Frame Time: 0.041667
54.790897 -6.583461 96.137604 -3.434721 1.552757 0.412323 -1.537027 -0.332369 0.119562 0.925928 -0.663607 0.234579 2.571031 -0.658988 0.242590 6.699529 -11.098209 -10.955413 -1.499550 -7.809560 -9.265309 -19.503361 -32.842995 -23.211792 -116.768586 -153.110138 -78.235439 0.000001 0.000003 -0.000000 65.139302 -0.125438 1.882615 0.000004 0.000004 -3.007081 -5.000215 -7.999124 0.000117 -16.240795 60.717991 19.220600 -47.903019 114.314042 36.336227 -0.000003 0.000003 0.000006 0.067493 8.713967 1.005977 0.000005 -0.000001 3.023630 -5.000213 7.998854 -0.000146 -2.335023 -173.316501 3.035749 -179.999991 0.000006 -1.019005 169.100731 -1.053653 -0.573873 0.000003 -0.000002 0.105866 69.950146 6.470113 3.184340 25.456952 -7.355615 -0.000000 -1.489247 170.978008 -2.895212 -0.000020 -0.000005 -0.881880 -12.752555 1.303270 0.788993 0.000003 -0.000004 -0.074537 71.557959 -5.891106 -4.716092 25.459180 7.355625 -0.003424 
54.789497 -6.584697 96.128708 -3.415001 1.550354 0.439305 -1.539497 -0.330815 0.118672 0.921615 -0.662862 0.232645 2.566720 -0.658041 0.240634 6.645839 -11.090052 -10.985418 -1.500208 -7.827259 -9.289865 -19.520447 -32.847753 -23.235520 -116.825099 -153.089210 -78.089327 0.000001 0.000002 0.000003 64.652959 -0.054604 1.855966 0.000007 0.000005 -3.007080 -5.000217 -7.999125 0.000116 -16.254556 60.722513 19.236760 -47.915034 114.309561 36.356680 -0.000002 0.000003 0.000005 0.067491 8.717738 1.003832 0.000004 -0.000001 3.023650 -5.000212 7.998854 -0.000144 -2.351917 -173.314589 3.034592 -179.999991 0.000006 -1.019005 169.097425 -1.056578 -0.574500 0.000003 -0.000002 0.105904 69.953165 6.470012 3.183845 25.456953 -7.355614 -0.000000 -1.529764 170.981150 -2.882218 -0.000020 -0.000004 -0.881508 -12.763542 1.300015 0.789332 0.000003 -0.000004 -0.074014 71.550685 -5.890735 -4.717116 25.459177 7.355625 -0.003424 
54.793697 -6.585125 96.131302 -3.396113 1.548068 0.465676 -1.541838 -0.329342 0.117854 0.917564 -0.662166 0.230850 2.562669 -0.657158 0.238818 6.593285 -11.080571 -11.014431 -1.501188 -7.846020 -9.313765 -19.536807 -32.851953 -23.258367 -116.880601 -153.068050 -77.943551 0.000000 0.000000 0.000001 64.165611 0.017892 1.828788 0.000007 0.000006 -3.007081 -5.000215 -7.999123 0.000119 -16.268445 60.727021 19.253070 -47.926703 114.304944 36.376262 -0.000004 0.000003 0.000007 0.067490 8.721295 1.001728 0.000004 -0.000001 3.023671 -5.000215 7.998854 -0.000144 -2.367745 -173.312649 3.033416 -179.999991 0.000006 -1.019005 169.094624 -1.058540 -0.574931 0.000003 -0.000001 0.105942 69.955986 6.469934 3.183467 25.456950 -7.355614 -0.000002 -1.568576 170.983322 -2.869718 -0.000020 -0.000004 -0.881119 -12.773929 1.296811 0.789651 0.000004 -0.000004 -0.073483 71.543602 -5.890268 -4.718415 25.459182 7.355625 -0.003424 
54.793495 -6.586439 96.138000 -3.378480 1.545910 0.491167 -1.543924 -0.327981 0.117169 0.913947 -0.661521 0.229315 2.559049 -0.656348 0.237263 6.541201 -11.070172 -11.042838 -1.501742 -7.865283 -9.337033 -19.552796 -32.855624 -23.280534 -116.934983 -153.047122 -77.797753 0.000000 0.000002 -0.000002 63.676959 0.092061 1.801098 0.000005 0.000004 -3.007070 -5.000217 -7.999123 0.000116 -16.282148 60.731447 19.269156 -47.937874 114.300108 36.394649 -0.000002 0.000003 0.000008 0.067483 8.724508 0.999685 0.000005 -0.000002 3.023689 -5.000213 7.998854 -0.000145 -2.381930 -173.310736 3.032243 -179.999991 0.000006 -1.019004 169.092411 -1.060491 -0.574352 0.000003 -0.000001 0.105980 69.958486 6.469845 3.183104 25.456952 -7.355615 -0.000001 -1.604696 170.986478 -2.858050 -0.000020 -0.000005 -0.880723 -12.783114 1.293721 0.789935 0.000003 -0.000005 -0.072948 71.536615 -5.889776 -4.719801 25.459178 7.355625 -0.003423 
54.791595 -6.587198 96.135490 -3.362524 1.543909 0.515503 -1.545697 -0.326765 0.116677 0.910940 -0.660928 0.228166 2.556038 -0.655614 0.236094 6.488916 -11.059168 -11.070629 -1.501124 -7.884477 -9.359667 -19.568033 -32.858623 -23.301779 -116.988259 -153.026604 -77.651799 0.000004 0.000003 -0.000001 63.186497 0.167911 1.772938 0.000005 0.000009 -3.007071 -5.000215 -7.999121 0.000119 -16.295148 60.735449 19.284435 -47.946893 114.295737 36.409887 -0.000003 0.000003 0.000008 0.067481 8.727265 0.997744 0.000004 -0.000002 3.023709 -5.000215 7.998854 -0.000146 -2.393907 -173.309794 3.031156 -179.999991 0.000005 -1.019004 169.091196 -1.062458 -0.574754 0.000003 -0.000002 0.106018 69.960473 6.469797 3.182980 25.456953 -7.355614 -0.000001 -1.637160 170.988636 -2.847431 -0.000021 -0.000004 -0.880326 -12.790802 1.290804 0.790172 0.000003 -0.000005 -0.072412 71.529805 -5.889183 -4.721464 25.459182 7.355624 -0.003423 
54.810596 -6.534907 96.111900 -3.348664 1.542074 0.538413 -1.547048 -0.325726 0.116437 0.908715 -0.660390 0.227523 2.553818 -0.654965 0.235434 6.435782 -11.047875 -11.097997 -1.498576 -7.903069 -9.381710 -19.582907 -32.861102 -23.322456 -117.040250 -153.006933 -77.505435 0.000002 0.000003 -0.000004 62.693726 0.245441 1.744353 0.000007 0.000006 -3.007068 -5.000215 -7.999123 0.000117 -16.307089 60.738871 19.298448 -47.955564 114.291222 36.423756 -0.000002 0.000003 0.000006 0.067477 8.729439 0.995941 0.000004 -0.000001 3.023741 -5.000214 7.998854 -0.000145 -2.403096 -173.308838 3.030134 -179.999991 0.000006 -1.019005 169.091196 -1.063438 -0.574943 0.000003 -0.000002 0.106055 69.962037 6.469766 3.182984 25.456953 -7.355616 0.000000 -1.664995 170.990740 -2.838178 -0.000020 -0.000005 -0.879939 -12.796388 1.288114 0.790340 0.000003 -0.000005 -0.071877 71.523391 -5.888508 -4.723294 25.459180 7.355624 -0.003423 
54.805595 -6.544707 96.115807 -3.337315 1.540414 0.559623 -1.547874 -0.324896 0.116510 0.907447 -0.659908 0.227512 2.552547 -0.654407 0.235409 6.381136 -11.036599 -11.125034 -1.493353 -7.920496 -9.403150 -19.597148 -32.862902 -23.342267 -117.091053 -152.988465 -77.358483 0.000001 0.000002 -0.000001 62.198353 0.324663 1.715370 0.000006 0.000006 -3.007070 -5.000216 -7.999125 0.000121 -16.317477 60.741453 19.310642 -47.960267 114.287759 36.432171 -0.000003 0.000003 0.000006 0.067475 8.730907 0.994318 0.000005 -0.000001 3.023761 -5.000214 7.998854 -0.000145 -2.408923 -173.308865 3.029265 -179.999991 0.000006 -1.019004 169.092698 -1.064422 -0.574107 0.000003 -0.000002 0.106091 69.962905 6.469837 3.182945 25.456953 -7.355613 -0.000001 -1.687242 170.991832 -2.830533 -0.000020 -0.000005 -0.879570 -12.799579 1.285699 0.790428 0.000003 -0.000005 -0.071349 71.517080 -5.887800 -4.725311 25.459178 7.355625 -0.003424 
54.802795 -6.543107 96.126198 -3.328922 1.538970 0.578864 -1.548085 -0.324309 0.116959 0.907311 -0.659485 0.228257 2.552417 -0.653946 0.236140 6.324323 -11.025757 -11.151721 -1.484704 -7.936197 -9.424030 -19.610759 -32.864107 -23.361339 -117.140640 -152.971348 -77.210699 0.000001 0.000001 -0.000001 61.699967 0.405583 1.686045 0.000005 0.000008 -3.007071 -5.000214 -7.999119 0.000116 -16.325959 60.743058 19.320583 -47.962978 114.284822 36.437116 -0.000004 0.000003 0.000007 0.067471 8.731566 0.992900 0.000003 -0.000001 3.023780 -5.000213 7.998854 -0.000145 -2.410807 -173.308878 3.028546 -179.999991 0.000006 -1.019004 169.095990 -1.064434 -0.574045 0.000003 -0.000002 0.106128 69.963048 6.469945 3.183155 25.456947 -7.355615 -0.000000 -1.702921 170.992925 -2.824828 -0.000021 -0.000004 -0.879227 -12.799767 1.283622 0.790417 0.000002 -0.000004 -0.070828 71.511247 -5.886978 -4.727583 25.459178 7.355625 -0.003422 
54.798195 -6.534197 96.118889 -3.323450 1.537671 0.596140 -1.547696 -0.323971 0.117772 0.908298 -0.659147 0.229687 2.553397 -0.653614 0.237559 6.266510 -11.013729 -11.178001 -1.473927 -7.952092 -9.444245 -19.623560 -32.864377 -23.379265 -117.188807 -152.954191 -77.061787 0.000001 0.000003 -0.000002 61.200995 0.488343 1.656914 0.000006 0.000006 -3.007070 -5.000215 -7.999121 0.000116 -16.333322 60.743966 19.329210 -47.963521 114.282350 36.438677 -0.000005 0.000003 0.000007 0.067467 8.731607 0.991642 0.000005 -0.000002 3.023810 -5.000214 7.998854 -0.000145 -2.408818 -173.309862 3.027959 -179.999991 0.000005 -1.019005 169.101004 -1.063472 -0.573764 0.000003 -0.000001 0.106164 69.962352 6.470081 3.183622 25.456948 -7.355617 0.000001 -1.712156 170.992966 -2.820933 -0.000020 -0.000004 -0.878887 -12.797055 1.281869 0.790301 0.000003 -0.000005 -0.070295 71.505612 -5.886093 -4.730138 25.459178 7.355625 -0.003423 
